<svg class="diagram-root" style="background: #f5f6f6" xmlns="http://www.w3.org/2000/svg" xmlns:xlink="http://www.w3.org/1999/xlink"><style>.diagram-root { font-family: "Helvetica Neue", sans-serif; font-size: 12px; } .t { overflow: visible; } .t-bg { y: 40; fill: #fff;   } .th { fill: #005aa0;   } .tht { fill: #fff; font-size: 14px;  } .tf { fill: #323c46; overflow: visible; } .tf.pk { fill: #005aa0; font-weight: bold; } .tf.fk { font-weight: bold; } .ty { fill: #adb1b5; font-weight: normal; text-anchor: end; } .r { fill: transparent; stroke: #c3c3c3; stroke-width: 1; } .l { stroke: 1; } .i { fill: #c2c7ce; stroke: #c2c7ce; } .i.ix { fill: #afb3b6; stroke: #000; } .fa { fill: transparent; overflow: visible; } .fa .bg.hover { fill: #f7f7f7; } .c { cy: 12; r: 4; stroke: #d2d2dc; fill: #d2d2dc; } .hr { fill: transparent; stroke: #323c46; stroke-opacity: 0.035; stroke-width: 13; } .dc { stroke: #fa5a3c; fill: #fa5a3c; } .x { stroke: white; stroke-width: 1; } .hl .th { fill: #1b9bff; } .hl .tht {  } .fhl .bg { fill: #e7f4ff; } .fhls .bg {  } .r.hl { stroke: #1b9bff; } .dim { opacity: 0.25; }</style><g class="drawing-wrapper" transform="translate(300.8833333333334, 68.89) scale(1,1)"><g class="rs"><path d="M 0.83 533.39 m -1, 0 a 1,1 0 1,0 2,0 a 1,1 0 1,0 -2,0 M 0.83 533.39 m -0.5, 0 a 0.5,0.5 0 1,0 1,0 a 0.5,0.5 0 1,0 -1,0  M0.83 533.39 L0.83 533.39 -11.17 533.39 M 0.83 539.39 m -1, 0 a 1,1 0 1,0 2,0 a 1,1 0 1,0 -2,0 M 0.83 539.39 m -0.5, 0 a 0.5,0.5 0 1,0 1,0 a 0.5,0.5 0 1,0 -1,0  M0.83 539.39 L0.83 539.39 -6.17 533.39 0.83 527.39 M 0.83 527.39 m -1, 0 a 1,1 0 1,0 2,0 a 1,1 0 1,0 -2,0 M 0.83 527.39 m -0.5, 0 a 0.5,0.5 0 1,0 1,0 a 0.5,0.5 0 1,0 -1,0  M-11.17 533.39 Q -29.63 533.39, -48.1 512.42 T -85.04 491.45 M -97.04 491.45 m -1, 0 a 1,1 0 1,0 2,0 a 1,1 0 1,0 -2,0 M -97.04 491.45 m -0.5, 0 a 0.5,0.5 0 1,0 1,0 a 0.5,0.5 0 1,0 -1,0  M-97.04 491.45 L-97.04 491.45 -85.04 491.45 M-91.04 497.45 L-91.04 497.45 -91.04 485.45" id="h2221825542" class="r"></path><path d="M 282.23 392.56 m -1, 0 a 1,1 0 1,0 2,0 a 1,1 0 1,0 -2,0 M 282.23 392.56 m -0.5, 0 a 0.5,0.5 0 1,0 1,0 a 0.5,0.5 0 1,0 -1,0  M282.23 392.56 L282.23 392.56 270.23 392.56 M 282.23 398.56 m -1, 0 a 1,1 0 1,0 2,0 a 1,1 0 1,0 -2,0 M 282.23 398.56 m -0.5, 0 a 0.5,0.5 0 1,0 1,0 a 0.5,0.5 0 1,0 -1,0  M282.23 398.56 L282.23 398.56 275.23 392.56 282.23 386.56 M 282.23 386.56 m -1, 0 a 1,1 0 1,0 2,0 a 1,1 0 1,0 -2,0 M 282.23 386.56 m -0.5, 0 a 0.5,0.5 0 1,0 1,0 a 0.5,0.5 0 1,0 -1,0  M270.23 392.56 Q 248.57 392.56, 226.9 412.98 T 183.57 433.39 M 171.57 433.39 m -1, 0 a 1,1 0 1,0 2,0 a 1,1 0 1,0 -2,0 M 171.57 433.39 m -0.5, 0 a 0.5,0.5 0 1,0 1,0 a 0.5,0.5 0 1,0 -1,0  M171.57 433.39 L171.57 433.39 183.57 433.39 M177.57 439.39 L177.57 439.39 177.57 427.39" id="h158056060" class="r"></path><path d="M 449.62 417.56 m -1, 0 a 1,1 0 1,0 2,0 a 1,1 0 1,0 -2,0 M 449.62 417.56 m -0.5, 0 a 0.5,0.5 0 1,0 1,0 a 0.5,0.5 0 1,0 -1,0  M449.62 417.56 L449.62 417.56 461.62 417.56 M 449.62 423.56 m -1, 0 a 1,1 0 1,0 2,0 a 1,1 0 1,0 -2,0 M 449.62 423.56 m -0.5, 0 a 0.5,0.5 0 1,0 1,0 a 0.5,0.5 0 1,0 -1,0  M449.62 423.56 L449.62 423.56 456.62 417.56 449.62 411.56 M 449.62 411.56 m -1, 0 a 1,1 0 1,0 2,0 a 1,1 0 1,0 -2,0 M 449.62 411.56 m -0.5, 0 a 0.5,0.5 0 1,0 1,0 a 0.5,0.5 0 1,0 -1,0  M461.62 417.56 C 499.826879252593 417.56, 501.416879252593 532.15, 458.97 532.15 M 446.97 532.15 m -1, 0 a 1,1 0 1,0 2,0 a 1,1 0 1,0 -2,0 M 446.97 532.15 m -0.5, 0 a 0.5,0.5 0 1,0 1,0 a 0.5,0.5 0 1,0 -1,0  M446.97 532.15 L446.97 532.15 458.97 532.15 M452.97 538.15 L452.97 538.15 452.97 526.15" id="h371724558" class="r"></path><path d="M 170.31 288.81 m -1, 0 a 1,1 0 1,0 2,0 a 1,1 0 1,0 -2,0 M 170.31 288.81 m -0.5, 0 a 0.5,0.5 0 1,0 1,0 a 0.5,0.5 0 1,0 -1,0  M170.31 288.81 L170.31 288.81 182.31 288.81 M 170.31 294.81 m -1, 0 a 1,1 0 1,0 2,0 a 1,1 0 1,0 -2,0 M 170.31 294.81 m -0.5, 0 a 0.5,0.5 0 1,0 1,0 a 0.5,0.5 0 1,0 -1,0  M170.31 294.81 L170.31 294.81 177.31 288.81 170.31 282.81 M 170.31 282.81 m -1, 0 a 1,1 0 1,0 2,0 a 1,1 0 1,0 -2,0 M 170.31 282.81 m -0.5, 0 a 0.5,0.5 0 1,0 1,0 a 0.5,0.5 0 1,0 -1,0  M182.31 288.81 C 232.52116342723383 288.81, 231.76516342723383 433.39, 183.57 433.39 M 171.57 433.39 m -1, 0 a 1,1 0 1,0 2,0 a 1,1 0 1,0 -2,0 M 171.57 433.39 m -0.5, 0 a 0.5,0.5 0 1,0 1,0 a 0.5,0.5 0 1,0 -1,0  M171.57 433.39 L171.57 433.39 183.57 433.39 M177.57 439.39 L177.57 439.39 177.57 427.39" id="h2143412786" class="r"></path><path d="M -265.97 227.82999999999998 m -1, 0 a 1,1 0 1,0 2,0 a 1,1 0 1,0 -2,0 M -265.97 227.82999999999998 m -0.5, 0 a 0.5,0.5 0 1,0 1,0 a 0.5,0.5 0 1,0 -1,0  M-265.97 227.82999999999998 L-265.97 227.82999999999998 -277.97 227.82999999999998 M -265.97 233.82999999999998 m -1, 0 a 1,1 0 1,0 2,0 a 1,1 0 1,0 -2,0 M -265.97 233.82999999999998 m -0.5, 0 a 0.5,0.5 0 1,0 1,0 a 0.5,0.5 0 1,0 -1,0  M-265.97 233.82999999999998 L-265.97 233.82999999999998 -272.97 227.82999999999998 -265.97 221.82999999999998 M -265.97 221.82999999999998 m -1, 0 a 1,1 0 1,0 2,0 a 1,1 0 1,0 -2,0 M -265.97 221.82999999999998 m -0.5, 0 a 0.5,0.5 0 1,0 1,0 a 0.5,0.5 0 1,0 -1,0  M-277.97 227.82999999999998 C -330.86599999999993 227.82999999999998, -329.78 491.45, -279.78 491.45 M -267.78 491.45 m -1, 0 a 1,1 0 1,0 2,0 a 1,1 0 1,0 -2,0 M -267.78 491.45 m -0.5, 0 a 0.5,0.5 0 1,0 1,0 a 0.5,0.5 0 1,0 -1,0  M-267.78 491.45 L-267.78 491.45 -279.78 491.45 M-273.78 497.45 L-273.78 497.45 -273.78 485.45" id="h2271801415" class="r"></path><path d="M -95.23 252.82999999999998 m -1, 0 a 1,1 0 1,0 2,0 a 1,1 0 1,0 -2,0 M -95.23 252.82999999999998 m -0.5, 0 a 0.5,0.5 0 1,0 1,0 a 0.5,0.5 0 1,0 -1,0  M-95.23 252.82999999999998 L-95.23 252.82999999999998 -83.23 252.82999999999998 M -95.23 258.83 m -1, 0 a 1,1 0 1,0 2,0 a 1,1 0 1,0 -2,0 M -95.23 258.83 m -0.5, 0 a 0.5,0.5 0 1,0 1,0 a 0.5,0.5 0 1,0 -1,0  M-95.23 258.83 L-95.23 258.83 -88.23 252.82999999999998 -95.23 246.82999999999998 M -95.23 246.82999999999998 m -1, 0 a 1,1 0 1,0 2,0 a 1,1 0 1,0 -2,0 M -95.23 246.82999999999998 m -0.5, 0 a 0.5,0.5 0 1,0 1,0 a 0.5,0.5 0 1,0 -1,0  M-83.23 252.82999999999998 Q -65.21 252.82999999999998, -47.2 343.11 T -11.17 433.39 M 0.83 433.39 m -1, 0 a 1,1 0 1,0 2,0 a 1,1 0 1,0 -2,0 M 0.83 433.39 m -0.5, 0 a 0.5,0.5 0 1,0 1,0 a 0.5,0.5 0 1,0 -1,0  M0.83 433.39 L0.83 433.39 -11.17 433.39 M-5.17 439.39 L-5.17 439.39 -5.17 427.39" id="h3486989607" class="r"></path><path d="M 280.56 95.33 m -1, 0 a 1,1 0 1,0 2,0 a 1,1 0 1,0 -2,0 M 280.56 95.33 m -0.5, 0 a 0.5,0.5 0 1,0 1,0 a 0.5,0.5 0 1,0 -1,0  M280.56 95.33 L280.56 95.33 268.56 95.33 M 280.56 101.33 m -1, 0 a 1,1 0 1,0 2,0 a 1,1 0 1,0 -2,0 M 280.56 101.33 m -0.5, 0 a 0.5,0.5 0 1,0 1,0 a 0.5,0.5 0 1,0 -1,0  M280.56 101.33 L280.56 101.33 273.56 95.33 280.56 89.33 M 280.56 89.33 m -1, 0 a 1,1 0 1,0 2,0 a 1,1 0 1,0 -2,0 M 280.56 89.33 m -0.5, 0 a 0.5,0.5 0 1,0 1,0 a 0.5,0.5 0 1,0 -1,0  M268.56 95.33 Q 249.33 95.33, 230.09 60.61 T 191.62 25.89 M 179.62 25.89 m -1, 0 a 1,1 0 1,0 2,0 a 1,1 0 1,0 -2,0 M 179.62 25.89 m -0.5, 0 a 0.5,0.5 0 1,0 1,0 a 0.5,0.5 0 1,0 -1,0  M179.62 25.89 L179.62 25.89 191.62 25.89 M185.62 31.89 L185.62 31.89 185.62 19.89" id="h3707938580" class="r"></path><path d="M -91.74 18.11 m -1, 0 a 1,1 0 1,0 2,0 a 1,1 0 1,0 -2,0 M -91.74 18.11 m -0.5, 0 a 0.5,0.5 0 1,0 1,0 a 0.5,0.5 0 1,0 -1,0  M-91.74 18.11 L-91.74 18.11 -79.74 18.11 M -91.74 24.11 m -1, 0 a 1,1 0 1,0 2,0 a 1,1 0 1,0 -2,0 M -91.74 24.11 m -0.5, 0 a 0.5,0.5 0 1,0 1,0 a 0.5,0.5 0 1,0 -1,0  M-91.74 24.11 L-91.74 24.11 -84.74 18.11 -91.74 12.11 M -91.74 12.11 m -1, 0 a 1,1 0 1,0 2,0 a 1,1 0 1,0 -2,0 M -91.74 12.11 m -0.5, 0 a 0.5,0.5 0 1,0 1,0 a 0.5,0.5 0 1,0 -1,0  M-79.74 18.11 C -29.739999999999995 18.11, -27.64599999999999 177.82999999999998, -83.23 177.82999999999998 M -95.23 177.82999999999998 m -1, 0 a 1,1 0 1,0 2,0 a 1,1 0 1,0 -2,0 M -95.23 177.82999999999998 m -0.5, 0 a 0.5,0.5 0 1,0 1,0 a 0.5,0.5 0 1,0 -1,0  M-95.23 177.82999999999998 L-95.23 177.82999999999998 -83.23 177.82999999999998 M-89.23 183.82999999999998 L-89.23 183.82999999999998 -89.23 171.82999999999998" id="h3865675525" class="r"></path><path d="M -91.74 43.11 m -1, 0 a 1,1 0 1,0 2,0 a 1,1 0 1,0 -2,0 M -91.74 43.11 m -0.5, 0 a 0.5,0.5 0 1,0 1,0 a 0.5,0.5 0 1,0 -1,0  M-91.74 43.11 L-91.74 43.11 -79.74 43.11 M -91.74 49.11 m -1, 0 a 1,1 0 1,0 2,0 a 1,1 0 1,0 -2,0 M -91.74 49.11 m -0.5, 0 a 0.5,0.5 0 1,0 1,0 a 0.5,0.5 0 1,0 -1,0  M-91.74 49.11 L-91.74 49.11 -84.74 43.11 -91.74 37.11 M -91.74 37.11 m -1, 0 a 1,1 0 1,0 2,0 a 1,1 0 1,0 -2,0 M -91.74 37.11 m -0.5, 0 a 0.5,0.5 0 1,0 1,0 a 0.5,0.5 0 1,0 -1,0  M-79.74 43.11 Q -59.74 43.11, -39.75 34.5 T 0.23000000000000043 25.89 M 12.23 25.89 m -1, 0 a 1,1 0 1,0 2,0 a 1,1 0 1,0 -2,0 M 12.23 25.89 m -0.5, 0 a 0.5,0.5 0 1,0 1,0 a 0.5,0.5 0 1,0 -1,0  M12.23 25.89 L12.23 25.89 0.23000000000000043 25.89 M6.23 31.89 L6.23 31.89 6.23 19.89" id="h1470755369" class="r"></path><path d="M 451.45 210.34 m -1, 0 a 1,1 0 1,0 2,0 a 1,1 0 1,0 -2,0 M 451.45 210.34 m -0.5, 0 a 0.5,0.5 0 1,0 1,0 a 0.5,0.5 0 1,0 -1,0  M451.45 210.34 L451.45 210.34 463.45 210.34 M 451.45 216.34 m -1, 0 a 1,1 0 1,0 2,0 a 1,1 0 1,0 -2,0 M 451.45 216.34 m -0.5, 0 a 0.5,0.5 0 1,0 1,0 a 0.5,0.5 0 1,0 -1,0  M451.45 216.34 L451.45 216.34 458.45 210.34 451.45 204.34 M 451.45 204.34 m -1, 0 a 1,1 0 1,0 2,0 a 1,1 0 1,0 -2,0 M 451.45 204.34 m -0.5, 0 a 0.5,0.5 0 1,0 1,0 a 0.5,0.5 0 1,0 -1,0  M463.45 210.34 C 513.45 210.34, 516.1379999999999 532.15, 458.97 532.15 M 446.97 532.15 m -1, 0 a 1,1 0 1,0 2,0 a 1,1 0 1,0 -2,0 M 446.97 532.15 m -0.5, 0 a 0.5,0.5 0 1,0 1,0 a 0.5,0.5 0 1,0 -1,0  M446.97 532.15 L446.97 532.15 458.97 532.15 M452.97 538.15 L452.97 538.15 452.97 526.15" id="h4023484824" class="r"></path><path d="M 266.66 235.34 m -1, 0 a 1,1 0 1,0 2,0 a 1,1 0 1,0 -2,0 M 266.66 235.34 m -0.5, 0 a 0.5,0.5 0 1,0 1,0 a 0.5,0.5 0 1,0 -1,0  M266.66 235.34 L266.66 235.34 254.66000000000003 235.34 M 266.66 241.34 m -1, 0 a 1,1 0 1,0 2,0 a 1,1 0 1,0 -2,0 M 266.66 241.34 m -0.5, 0 a 0.5,0.5 0 1,0 1,0 a 0.5,0.5 0 1,0 -1,0  M266.66 241.34 L266.66 241.34 259.66 235.34 266.66 229.34 M 266.66 229.34 m -1, 0 a 1,1 0 1,0 2,0 a 1,1 0 1,0 -2,0 M 266.66 229.34 m -0.5, 0 a 0.5,0.5 0 1,0 1,0 a 0.5,0.5 0 1,0 -1,0  M254.66000000000003 235.34 Q 238.9 235.34, 223.14 130.62 T 191.62 25.89 M 179.62 25.89 m -1, 0 a 1,1 0 1,0 2,0 a 1,1 0 1,0 -2,0 M 179.62 25.89 m -0.5, 0 a 0.5,0.5 0 1,0 1,0 a 0.5,0.5 0 1,0 -1,0  M179.62 25.89 L179.62 25.89 191.62 25.89 M185.62 31.89 L185.62 31.89 185.62 19.89" id="h79381925" class="r"></path></g><g class="hrs"></g><g class="ts"><svg width="170.74" height="175" x="-267.78" y="434.45" id="h384084810" class="t"><rect height="40" width="170.74" class="th"></rect><text x="13" y="25" class="tht">account</text><rect height="135" width="170.74" class="t-bg"></rect><text x="13" y="61" class="tf pk">id<tspan x="157.74" class="ty">SERIAL</tspan></text><path d="M7,14A2,2 0 0,1 5,12A2,2 0 0,1 7,10A2,2 0 0,1 9,12A2,2 0 0,1 7,14M12.65,10C11.83,7.67 9.61,6 7, 6A6, 6 0 0, 0 1, 12A6, 6 0 0, 0 7, 18C9.61, 18 11.83, 16.33 12.65, 14H17V18H21V14H23V10H12.65Z" class="i pk" transform="translate(95.05445312500001, 48) scale(0.65)"></path><text x="13" y="86" class="tf">name<tspan x="157.74" class="ty">varchar</tspan></text><path d="M814.545 581.818v-23.273H535.273v-93.09h-46.546v93.09H209.455v139.637H256V605.09h232.727v93.09h46.546v-93.09H768v93.09h46.545V581.819zM674.91 465.455H349.091V139.636h325.818v325.819zM325.82 884.364H139.635V698.182h186.182v186.182z m279.272 0H418.909V698.182h186.182v186.182z m279.273 0H698.182V698.182h186.182v186.182zM395.636 418.909h232.728V186.182H395.636v232.727zM186.182 837.82h93.09v-93.092h-93.09v93.091z m279.273 0h93.09v-93.092h-93.09v93.091z m279.272 0h93.091v-93.092h-93.09v93.091z" class="i ix" transform="translate(102.72632812500001, 75) scale(0.014)"></path><text x="13" y="111" class="tf">active<tspan x="157.74" class="ty">boolean</tspan></text><text x="13" y="136" class="tf">created_at<tspan x="157.74" class="ty">timestamptz</tspan></text><text x="13" y="161" class="tf">updated_at<tspan x="157.74" class="ty">timestamptz</tspan></text></svg><svg width="170.74" height="225" x="0.83" y="376.39" id="h2728321744" class="t"><rect height="40" width="170.74" class="th"></rect><text x="13" y="25" class="tht">user</text><rect height="185" width="170.74" class="t-bg"></rect><text x="13" y="61" class="tf pk">id<tspan x="157.74" class="ty">SERIAL</tspan></text><path d="M7,14A2,2 0 0,1 5,12A2,2 0 0,1 7,10A2,2 0 0,1 9,12A2,2 0 0,1 7,14M12.65,10C11.83,7.67 9.61,6 7, 6A6, 6 0 0, 0 1, 12A6, 6 0 0, 0 7, 18C9.61, 18 11.83, 16.33 12.65, 14H17V18H21V14H23V10H12.65Z" class="i pk" transform="translate(95.05445312500001, 48) scale(0.65)"></path><text x="13" y="86" class="tf">name<tspan x="157.74" class="ty">varchar</tspan></text><path d="M814.545 581.818v-23.273H535.273v-93.09h-46.546v93.09H209.455v139.637H256V605.09h232.727v93.09h46.546v-93.09H768v93.09h46.545V581.819zM674.91 465.455H349.091V139.636h325.818v325.819zM325.82 884.364H139.635V698.182h186.182v186.182z m279.272 0H418.909V698.182h186.182v186.182z m279.273 0H698.182V698.182h186.182v186.182zM395.636 418.909h232.728V186.182H395.636v232.727zM186.182 837.82h93.09v-93.092h-93.09v93.091z m279.273 0h93.09v-93.092h-93.09v93.091z m279.272 0h93.091v-93.092h-93.09v93.091z" class="i ix" transform="translate(102.72632812500001, 75) scale(0.014)"></path><text x="13" y="111" class="tf">email<tspan x="157.74" class="ty">varchar</tspan></text><text x="13" y="136" class="tf">active<tspan x="157.74" class="ty">boolean</tspan></text><text x="13" y="161" class="tf fk">account_id<tspan x="157.74" class="ty">int</tspan></text><text x="13" y="186" class="tf">created_at<tspan x="157.74" class="ty">timestamptz</tspan></text><text x="13" y="211" class="tf">updated_at<tspan x="157.74" class="ty">timestamptz</tspan></text></svg><svg width="167.39" height="150" x="279.58" y="475.15" id="h1125844276" class="t"><rect height="40" width="167.39" class="th"></rect><text x="13" y="25" class="tht">user_role</text><rect height="110" width="167.39" class="t-bg"></rect><text x="13" y="61" class="tf pk">id<tspan x="154.39" class="ty">SERIAL</tspan></text><path d="M7,14A2,2 0 0,1 5,12A2,2 0 0,1 7,10A2,2 0 0,1 9,12A2,2 0 0,1 7,14M12.65,10C11.83,7.67 9.61,6 7, 6A6, 6 0 0, 0 1, 12A6, 6 0 0, 0 7, 18C9.61, 18 11.83, 16.33 12.65, 14H17V18H21V14H23V10H12.65Z" class="i pk" transform="translate(91.70445312499999, 48) scale(0.65)"></path><text x="13" y="86" class="tf">name<tspan x="154.39" class="ty">varchar</tspan></text><path d="M814.545 581.818v-23.273H535.273v-93.09h-46.546v93.09H209.455v139.637H256V605.09h232.727v93.09h46.546v-93.09H768v93.09h46.545V581.819zM674.91 465.455H349.091V139.636h325.818v325.819zM325.82 884.364H139.635V698.182h186.182v186.182z m279.272 0H418.909V698.182h186.182v186.182z m279.273 0H698.182V698.182h186.182v186.182zM395.636 418.909h232.728V186.182H395.636v232.727zM186.182 837.82h93.09v-93.092h-93.09v93.091z m279.273 0h93.09v-93.092h-93.09v93.091z m279.272 0h93.091v-93.092h-93.09v93.091z" class="i ix" transform="translate(99.37632812499999, 75) scale(0.014)"></path><text x="13" y="111" class="tf">description<tspan x="154.39" class="ty">varchar</tspan></text><text x="13" y="136" class="tf">created_at<tspan x="154.39" class="ty">timestamptz</tspan></text></svg><svg width="167.39" height="125" x="282.23" y="335.56" id="h3147576445" class="t"><rect height="40" width="167.39" class="th"></rect><text x="13" y="25" class="tht">user__user_role</text><rect height="85" width="167.39" class="t-bg"></rect><text x="13" y="61" class="tf fk">user_id<tspan x="154.39" class="ty">int</tspan></text><text x="13" y="86" class="tf fk">user_role_id<tspan x="154.39" class="ty">int</tspan></text><text x="13" y="111" class="tf">created_at<tspan x="154.39" class="ty">timestamptz</tspan></text></svg><svg width="167.39" height="150" x="2.92" y="206.81" id="h1275467320" class="t"><rect height="40" width="167.39" class="th"></rect><text x="13" y="25" class="tht">reset_token</text><rect height="110" width="167.39" class="t-bg"></rect><text x="13" y="61" class="tf">reset_token<tspan x="154.39" class="ty">varchar</tspan></text><path d="M814.545 581.818v-23.273H535.273v-93.09h-46.546v93.09H209.455v139.637H256V605.09h232.727v93.09h46.546v-93.09H768v93.09h46.545V581.819zM674.91 465.455H349.091V139.636h325.818v325.819zM325.82 884.364H139.635V698.182h186.182v186.182z m279.272 0H418.909V698.182h186.182v186.182z m279.273 0H698.182V698.182h186.182v186.182zM395.636 418.909h232.728V186.182H395.636v232.727zM186.182 837.82h93.09v-93.092h-93.09v93.091z m279.273 0h93.09v-93.092h-93.09v93.091z m279.272 0h93.091v-93.092h-93.09v93.091z" class="i ix" transform="translate(99.37632812499999, 50) scale(0.014)"></path><text x="13" y="86" class="tf fk">user_id<tspan x="154.39" class="ty">int</tspan></text><text x="13" y="111" class="tf">expires_at<tspan x="154.39" class="ty">timestamptz</tspan></text><text x="13" y="136" class="tf">created_at<tspan x="154.39" class="ty">timestamptz</tspan></text></svg><svg width="170.74" height="275" x="-265.97" y="120.83" id="h1778071919" class="t"><rect height="40" width="170.74" class="th"></rect><text x="13" y="25" class="tht">api_token</text><rect height="235" width="170.74" class="t-bg"></rect><text x="13" y="61" class="tf pk">id<tspan x="157.74" class="ty">SERIAL</tspan></text><path d="M7,14A2,2 0 0,1 5,12A2,2 0 0,1 7,10A2,2 0 0,1 9,12A2,2 0 0,1 7,14M12.65,10C11.83,7.67 9.61,6 7, 6A6, 6 0 0, 0 1, 12A6, 6 0 0, 0 7, 18C9.61, 18 11.83, 16.33 12.65, 14H17V18H21V14H23V10H12.65Z" class="i pk" transform="translate(95.05445312500001, 48) scale(0.65)"></path><text x="13" y="86" class="tf">secret<tspan x="157.74" class="ty">varchar</tspan></text><path d="M814.545 581.818v-23.273H535.273v-93.09h-46.546v93.09H209.455v139.637H256V605.09h232.727v93.09h46.546v-93.09H768v93.09h46.545V581.819zM674.91 465.455H349.091V139.636h325.818v325.819zM325.82 884.364H139.635V698.182h186.182v186.182z m279.272 0H418.909V698.182h186.182v186.182z m279.273 0H698.182V698.182h186.182v186.182zM395.636 418.909h232.728V186.182H395.636v232.727zM186.182 837.82h93.09v-93.092h-93.09v93.091z m279.273 0h93.09v-93.092h-93.09v93.091z m279.272 0h93.091v-93.092h-93.09v93.091z" class="i ix" transform="translate(102.72632812500001, 75) scale(0.014)"></path><text x="13" y="111" class="tf fk">account_id<tspan x="157.74" class="ty">int</tspan></text><text x="13" y="136" class="tf fk">created_by<tspan x="157.74" class="ty">int</tspan></text><text x="13" y="161" class="tf">username<tspan x="157.74" class="ty">varchar</tspan></text><text x="13" y="186" class="tf">active<tspan x="157.74" class="ty">boolean</tspan></text><text x="13" y="211" class="tf">created_at<tspan x="157.74" class="ty">timestamptz</tspan></text><text x="13" y="236" class="tf">updated_at<tspan x="157.74" class="ty">timestamptz</tspan></text><text x="13" y="261" class="tf">seen_at<tspan x="157.74" class="ty">timestamptz</tspan></text></svg><svg width="167.39" height="150" x="12.23" y="-31.11" id="h604874534" class="t"><rect height="40" width="167.39" class="th"></rect><text x="13" y="25" class="tht">api_auth_role</text><rect height="110" width="167.39" class="t-bg"></rect><text x="13" y="61" class="tf pk">id<tspan x="154.39" class="ty">SERIAL</tspan></text><path d="M7,14A2,2 0 0,1 5,12A2,2 0 0,1 7,10A2,2 0 0,1 9,12A2,2 0 0,1 7,14M12.65,10C11.83,7.67 9.61,6 7, 6A6, 6 0 0, 0 1, 12A6, 6 0 0, 0 7, 18C9.61, 18 11.83, 16.33 12.65, 14H17V18H21V14H23V10H12.65Z" class="i pk" transform="translate(91.70445312499999, 48) scale(0.65)"></path><text x="13" y="86" class="tf">name<tspan x="154.39" class="ty">varchar</tspan></text><path d="M814.545 581.818v-23.273H535.273v-93.09h-46.546v93.09H209.455v139.637H256V605.09h232.727v93.09h46.546v-93.09H768v93.09h46.545V581.819zM674.91 465.455H349.091V139.636h325.818v325.819zM325.82 884.364H139.635V698.182h186.182v186.182z m279.272 0H418.909V698.182h186.182v186.182z m279.273 0H698.182V698.182h186.182v186.182zM395.636 418.909h232.728V186.182H395.636v232.727zM186.182 837.82h93.09v-93.092h-93.09v93.091z m279.273 0h93.09v-93.092h-93.09v93.091z m279.272 0h93.091v-93.092h-93.09v93.091z" class="i ix" transform="translate(99.37632812499999, 75) scale(0.014)"></path><text x="13" y="111" class="tf">description<tspan x="154.39" class="ty">varchar</tspan></text><text x="13" y="136" class="tf">created_at<tspan x="154.39" class="ty">timestamptz</tspan></text></svg><svg width="155.41" height="150" x="280.56" y="-36.67" id="h4082542992" class="t"><rect height="40" width="155.41" class="th"></rect><text x="13" y="25" class="tht">api_auth_permission</text><rect height="110" width="155.41" class="t-bg"></rect><text x="13" y="61" class="tf pk">id<tspan x="142.41" class="ty">SERIAL</tspan></text><path d="M7,14A2,2 0 0,1 5,12A2,2 0 0,1 7,10A2,2 0 0,1 9,12A2,2 0 0,1 7,14M12.65,10C11.83,7.67 9.61,6 7, 6A6, 6 0 0, 0 1, 12A6, 6 0 0, 0 7, 18C9.61, 18 11.83, 16.33 12.65, 14H17V18H21V14H23V10H12.65Z" class="i pk" transform="translate(79.724453125, 48) scale(0.65)"></path><text x="13" y="86" class="tf">method<tspan x="142.41" class="ty">method_type</tspan></text><text x="13" y="111" class="tf">path<tspan x="142.41" class="ty">varchar</tspan></text><text x="13" y="136" class="tf fk">api_auth_role_id<tspan x="142.41" class="ty">int</tspan></text></svg><svg width="187.14" height="125" x="-278.88" y="-38.89" id="h465311044" class="t"><rect height="40" width="187.14" class="th"></rect><text x="13" y="25" class="tht">api_token__api_auth_role</text><rect height="85" width="187.14" class="t-bg"></rect><text x="13" y="61" class="tf fk">api_token_id<tspan x="174.14" class="ty">int</tspan></text><text x="13" y="86" class="tf fk">api_auth_role_id<tspan x="174.14" class="ty">int</tspan></text><text x="13" y="111" class="tf">created_at<tspan x="174.14" class="ty">timestamptz</tspan></text></svg><svg width="184.79" height="125" x="266.66" y="153.34" id="h3492276648" class="t"><rect height="40" width="184.79" class="th"></rect><text x="13" y="25" class="tht">user_role__api_auth_role</text><rect height="85" width="184.79" class="t-bg"></rect><text x="13" y="61" class="tf fk">user_role_id<tspan x="171.79" class="ty">int</tspan></text><text x="13" y="86" class="tf fk">api_auth_role_id<tspan x="171.79" class="ty">int</tspan></text><text x="13" y="111" class="tf">created_at<tspan x="171.79" class="ty">timestamptz</tspan></text></svg></g></g><text class="qdbd-link" x="10" y="20">www.quickdatabasediagrams.com</text></svg>