<svg class="diagram-root" style="background: #f5f6f6" xmlns="http://www.w3.org/2000/svg" xmlns:xlink="http://www.w3.org/1999/xlink"><style>.diagram-root { font-family: "Helvetica Neue", sans-serif; font-size: 12px; } .t { overflow: visible; } .t-bg { y: 40; fill: #fff;   } .th { fill: #005aa0;   } .tht { fill: #fff; font-size: 14px;  } .tf { fill: #323c46; overflow: visible; } .tf.pk { fill: #005aa0; font-weight: bold; } .tf.fk { font-weight: bold; } .ty { fill: #adb1b5; font-weight: normal; text-anchor: end; } .r { fill: transparent; stroke: #c3c3c3; stroke-width: 1; } .l { stroke: 1; } .i { fill: #c2c7ce; stroke: #c2c7ce; } .i.ix { fill: #afb3b6; stroke: #000; } .fa { fill: transparent; overflow: visible; } .fa .bg.hover { fill: #f7f7f7; } .c { cy: 12; r: 4; stroke: #d2d2dc; fill: #d2d2dc; } .hr { fill: transparent; stroke: #323c46; stroke-opacity: 0.035; stroke-width: 13; } .dc { stroke: #fa5a3c; fill: #fa5a3c; } .x { stroke: white; stroke-width: 1; } .hl .th { fill: #1b9bff; } .hl .tht {  } .fhl .bg { fill: #e7f4ff; } .fhls .bg {  } .r.hl { stroke: #1b9bff; } .dim { opacity: 0.25; }</style><g class="drawing-wrapper" transform="translate(-496.11, 49) scale(1,1)"><g class="rs"><path d="M 836.22 442 m -1, 0 a 1,1 0 1,0 2,0 a 1,1 0 1,0 -2,0 M 836.22 442 m -0.5, 0 a 0.5,0.5 0 1,0 1,0 a 0.5,0.5 0 1,0 -1,0  M836.22 442 L836.22 442 824.22 442 M830.22 448 L830.22 448 830.22 436 M824.22 442 Q 794.63 442, 765.04 315.95 T 705.85 189.89 M 693.85 189.89 m -1, 0 a 1,1 0 1,0 2,0 a 1,1 0 1,0 -2,0 M 693.85 189.89 m -0.5, 0 a 0.5,0.5 0 1,0 1,0 a 0.5,0.5 0 1,0 -1,0  M693.85 189.89 L693.85 189.89 705.85 189.89 M699.85 195.89 L699.85 195.89 699.85 183.89" id="h2861616965" class="r"></path><path d="M 518.11 459.11 m -1, 0 a 1,1 0 1,0 2,0 a 1,1 0 1,0 -2,0 M 518.11 459.11 m -0.5, 0 a 0.5,0.5 0 1,0 1,0 a 0.5,0.5 0 1,0 -1,0  M518.11 459.11 L518.11 459.11 506.11 459.11 M 518.11 465.11 m -1, 0 a 1,1 0 1,0 2,0 a 1,1 0 1,0 -2,0 M 518.11 465.11 m -0.5, 0 a 0.5,0.5 0 1,0 1,0 a 0.5,0.5 0 1,0 -1,0  M518.11 465.11 L518.11 465.11 511.11 459.11 518.11 453.11 M 518.11 453.11 m -1, 0 a 1,1 0 1,0 2,0 a 1,1 0 1,0 -2,0 M 518.11 453.11 m -0.5, 0 a 0.5,0.5 0 1,0 1,0 a 0.5,0.5 0 1,0 -1,0  M506.11 459.11 C 456.11 459.11, 453.11 189.89, 511.11 189.89 M 523.11 189.89 m -1, 0 a 1,1 0 1,0 2,0 a 1,1 0 1,0 -2,0 M 523.11 189.89 m -0.5, 0 a 0.5,0.5 0 1,0 1,0 a 0.5,0.5 0 1,0 -1,0  M523.11 189.89 L523.11 189.89 511.11 189.89 M517.11 195.89 L517.11 195.89 517.11 183.89" id="h1735354479" class="r"></path><path d="M 518.11 509.11 m -1, 0 a 1,1 0 1,0 2,0 a 1,1 0 1,0 -2,0 M 518.11 509.11 m -0.5, 0 a 0.5,0.5 0 1,0 1,0 a 0.5,0.5 0 1,0 -1,0  M518.11 509.11 L518.11 509.11 506.11 509.11 M 518.11 515.11 m -1, 0 a 1,1 0 1,0 2,0 a 1,1 0 1,0 -2,0 M 518.11 515.11 m -0.5, 0 a 0.5,0.5 0 1,0 1,0 a 0.5,0.5 0 1,0 -1,0  M518.11 515.11 L518.11 515.11 511.11 509.11 518.11 503.11 M 518.11 503.11 m -1, 0 a 1,1 0 1,0 2,0 a 1,1 0 1,0 -2,0 M 518.11 503.11 m -0.5, 0 a 0.5,0.5 0 1,0 1,0 a 0.5,0.5 0 1,0 -1,0  M506.11 509.11 C 456.11 509.11, 454.172 663.66, 509.34000000000003 663.66 M 521.34 663.66 m -1, 0 a 1,1 0 1,0 2,0 a 1,1 0 1,0 -2,0 M 521.34 663.66 m -0.5, 0 a 0.5,0.5 0 1,0 1,0 a 0.5,0.5 0 1,0 -1,0  M521.34 663.66 L521.34 663.66 509.34000000000003 663.66 M515.34 669.66 L515.34 669.66 515.34 657.66" id="h1954372252" class="r"></path><path d="M 685.5 534.11 m -1, 0 a 1,1 0 1,0 2,0 a 1,1 0 1,0 -2,0 M 685.5 534.11 m -0.5, 0 a 0.5,0.5 0 1,0 1,0 a 0.5,0.5 0 1,0 -1,0  M685.5 534.11 L685.5 534.11 692.5 534.11 M 685.5 540.11 m -1, 0 a 1,1 0 1,0 2,0 a 1,1 0 1,0 -2,0 M 685.5 540.11 m -0.5, 0 a 0.5,0.5 0 1,0 1,0 a 0.5,0.5 0 1,0 -1,0  M685.5 540.11 L685.5 540.11 692.5 534.11 685.5 528.11 M 685.5 528.11 m -1, 0 a 1,1 0 1,0 2,0 a 1,1 0 1,0 -2,0 M 685.5 528.11 m -0.5, 0 a 0.5,0.5 0 1,0 1,0 a 0.5,0.5 0 1,0 -1,0  M 695 534.11 m -2.5, 0 a 2.5,2.5 0 1,0 5,0 a 2.5,2.5 0 1,0 -5,0 M697.5 534.11 Q 729.18 534.11, 760.86 475.56 T 824.22 417 M 836.22 417 m -1, 0 a 1,1 0 1,0 2,0 a 1,1 0 1,0 -2,0 M 836.22 417 m -0.5, 0 a 0.5,0.5 0 1,0 1,0 a 0.5,0.5 0 1,0 -1,0  M836.22 417 L836.22 417 824.22 417 M830.22 423 L830.22 423 830.22 411" id="h1229668854" class="r"></path><path d="M 877 38 m -1, 0 a 1,1 0 1,0 2,0 a 1,1 0 1,0 -2,0 M 877 38 m -0.5, 0 a 0.5,0.5 0 1,0 1,0 a 0.5,0.5 0 1,0 -1,0  M877 38 L877 38 865 38 M 877 44 m -1, 0 a 1,1 0 1,0 2,0 a 1,1 0 1,0 -2,0 M 877 44 m -0.5, 0 a 0.5,0.5 0 1,0 1,0 a 0.5,0.5 0 1,0 -1,0  M877 44 L877 44 870 38 877 32 M 877 32 m -1, 0 a 1,1 0 1,0 2,0 a 1,1 0 1,0 -2,0 M 877 32 m -0.5, 0 a 0.5,0.5 0 1,0 1,0 a 0.5,0.5 0 1,0 -1,0  M865 38 Q 825.21 38, 785.43 113.95 T 705.85 189.89 M 693.85 189.89 m -1, 0 a 1,1 0 1,0 2,0 a 1,1 0 1,0 -2,0 M 693.85 189.89 m -0.5, 0 a 0.5,0.5 0 1,0 1,0 a 0.5,0.5 0 1,0 -1,0  M693.85 189.89 L693.85 189.89 705.85 189.89 M699.85 195.89 L699.85 195.89 699.85 183.89" id="h2879668232" class="r"></path><path d="M 1044.39 63 m -1, 0 a 1,1 0 1,0 2,0 a 1,1 0 1,0 -2,0 M 1044.39 63 m -0.5, 0 a 0.5,0.5 0 1,0 1,0 a 0.5,0.5 0 1,0 -1,0  M1044.39 63 L1044.39 63 1056.39 63 M 1044.39 69 m -1, 0 a 1,1 0 1,0 2,0 a 1,1 0 1,0 -2,0 M 1044.39 69 m -0.5, 0 a 0.5,0.5 0 1,0 1,0 a 0.5,0.5 0 1,0 -1,0  M1044.39 69 L1044.39 69 1051.39 63 1044.39 57 M 1044.39 57 m -1, 0 a 1,1 0 1,0 2,0 a 1,1 0 1,0 -2,0 M 1044.39 57 m -0.5, 0 a 0.5,0.5 0 1,0 1,0 a 0.5,0.5 0 1,0 -1,0  M1056.39 63 Q 1071.55 63, 1086.7 63 T 1117 63 M 1129 63 m -1, 0 a 1,1 0 1,0 2,0 a 1,1 0 1,0 -2,0 M 1129 63 m -0.5, 0 a 0.5,0.5 0 1,0 1,0 a 0.5,0.5 0 1,0 -1,0  M1129 63 L1129 63 1117 63 M1123 69 L1123 69 1123 57" id="h811749952" class="r"></path><path d="M 1198.56 375.11 m -1, 0 a 1,1 0 1,0 2,0 a 1,1 0 1,0 -2,0 M 1198.56 375.11 m -0.5, 0 a 0.5,0.5 0 1,0 1,0 a 0.5,0.5 0 1,0 -1,0  M1198.56 375.11 L1198.56 375.11 1186.56 375.11 M 1198.56 381.11 m -1, 0 a 1,1 0 1,0 2,0 a 1,1 0 1,0 -2,0 M 1198.56 381.11 m -0.5, 0 a 0.5,0.5 0 1,0 1,0 a 0.5,0.5 0 1,0 -1,0  M1198.56 381.11 L1198.56 381.11 1191.56 375.11 1198.56 369.11 M 1198.56 369.11 m -1, 0 a 1,1 0 1,0 2,0 a 1,1 0 1,0 -2,0 M 1198.56 369.11 m -0.5, 0 a 0.5,0.5 0 1,0 1,0 a 0.5,0.5 0 1,0 -1,0  M1186.56 375.11 Q 1153.25 375.11, 1119.94 396.06 T 1053.31 417 M 1041.31 417 m -1, 0 a 1,1 0 1,0 2,0 a 1,1 0 1,0 -2,0 M 1041.31 417 m -0.5, 0 a 0.5,0.5 0 1,0 1,0 a 0.5,0.5 0 1,0 -1,0  M1041.31 417 L1041.31 417 1053.31 417 M1047.31 423 L1047.31 423 1047.31 411" id="h2863192786" class="r"></path><path d="M 879.33 199.89 m -1, 0 a 1,1 0 1,0 2,0 a 1,1 0 1,0 -2,0 M 879.33 199.89 m -0.5, 0 a 0.5,0.5 0 1,0 1,0 a 0.5,0.5 0 1,0 -1,0  M879.33 199.89 L879.33 199.89 867.33 199.89 M 879.33 205.89 m -1, 0 a 1,1 0 1,0 2,0 a 1,1 0 1,0 -2,0 M 879.33 205.89 m -0.5, 0 a 0.5,0.5 0 1,0 1,0 a 0.5,0.5 0 1,0 -1,0  M879.33 205.89 L879.33 205.89 872.33 199.89 879.33 193.89 M 879.33 193.89 m -1, 0 a 1,1 0 1,0 2,0 a 1,1 0 1,0 -2,0 M 879.33 193.89 m -0.5, 0 a 0.5,0.5 0 1,0 1,0 a 0.5,0.5 0 1,0 -1,0  M867.33 199.89 Q 826.96 199.89, 786.59 194.89 T 705.85 189.89 M 693.85 189.89 m -1, 0 a 1,1 0 1,0 2,0 a 1,1 0 1,0 -2,0 M 693.85 189.89 m -0.5, 0 a 0.5,0.5 0 1,0 1,0 a 0.5,0.5 0 1,0 -1,0  M693.85 189.89 L693.85 189.89 705.85 189.89 M699.85 195.89 L699.85 195.89 699.85 183.89" id="h1351716589" class="r"></path><path d="M 1046.72 249.89 m -1, 0 a 1,1 0 1,0 2,0 a 1,1 0 1,0 -2,0 M 1046.72 249.89 m -0.5, 0 a 0.5,0.5 0 1,0 1,0 a 0.5,0.5 0 1,0 -1,0  M1046.72 249.89 L1046.72 249.89 1058.72 249.89 M 1046.72 255.89 m -1, 0 a 1,1 0 1,0 2,0 a 1,1 0 1,0 -2,0 M 1046.72 255.89 m -0.5, 0 a 0.5,0.5 0 1,0 1,0 a 0.5,0.5 0 1,0 -1,0  M1046.72 255.89 L1046.72 255.89 1053.72 249.89 1046.72 243.89 M 1046.72 243.89 m -1, 0 a 1,1 0 1,0 2,0 a 1,1 0 1,0 -2,0 M 1046.72 243.89 m -0.5, 0 a 0.5,0.5 0 1,0 1,0 a 0.5,0.5 0 1,0 -1,0  M1058.72 249.89 Q 1090.68 249.89, 1122.64 287.5 T 1186.56 325.11 M 1198.56 325.11 m -1, 0 a 1,1 0 1,0 2,0 a 1,1 0 1,0 -2,0 M 1198.56 325.11 m -0.5, 0 a 0.5,0.5 0 1,0 1,0 a 0.5,0.5 0 1,0 -1,0  M1198.56 325.11 L1198.56 325.11 1186.56 325.11 M1192.56 331.11 L1192.56 331.11 1192.56 319.11" id="h3783689878" class="r"></path><path d="M 1046.72 274.89 m -1, 0 a 1,1 0 1,0 2,0 a 1,1 0 1,0 -2,0 M 1046.72 274.89 m -0.5, 0 a 0.5,0.5 0 1,0 1,0 a 0.5,0.5 0 1,0 -1,0  M1046.72 274.89 L1046.72 274.89 1053.72 274.89 M 1046.72 280.89 m -1, 0 a 1,1 0 1,0 2,0 a 1,1 0 1,0 -2,0 M 1046.72 280.89 m -0.5, 0 a 0.5,0.5 0 1,0 1,0 a 0.5,0.5 0 1,0 -1,0  M1046.72 280.89 L1046.72 280.89 1053.72 274.89 1046.72 268.89 M 1046.72 268.89 m -1, 0 a 1,1 0 1,0 2,0 a 1,1 0 1,0 -2,0 M 1046.72 268.89 m -0.5, 0 a 0.5,0.5 0 1,0 1,0 a 0.5,0.5 0 1,0 -1,0  M 1056.22 274.89 m -2.5, 0 a 2.5,2.5 0 1,0 5,0 a 2.5,2.5 0 1,0 -5,0 M1058.72 274.89 C 1106.1243132121024 274.89, 1109.3703132121025 417, 1053.31 417 M 1041.31 417 m -1, 0 a 1,1 0 1,0 2,0 a 1,1 0 1,0 -2,0 M 1041.31 417 m -0.5, 0 a 0.5,0.5 0 1,0 1,0 a 0.5,0.5 0 1,0 -1,0  M1041.31 417 L1041.31 417 1053.31 417 M1047.31 423 L1047.31 423 1047.31 411" id="h896753391" class="r"></path></g><g class="hrs"></g><g class="ts"><svg width="170.74" height="250" x="523.11" y="132.89" id="h1481749269" class="t"><rect height="40" width="170.74" class="th"></rect><text x="13" y="25" class="tht">merchant</text><rect height="210" width="170.74" class="t-bg"></rect><text x="13" y="61" class="tf pk">id<tspan x="157.74" class="ty">SERIAL</tspan></text><path d="M7,14A2,2 0 0,1 5,12A2,2 0 0,1 7,10A2,2 0 0,1 9,12A2,2 0 0,1 7,14M12.65,10C11.83,7.67 9.61,6 7, 6A6, 6 0 0, 0 1, 12A6, 6 0 0, 0 7, 18C9.61, 18 11.83, 16.33 12.65, 14H17V18H21V14H23V10H12.65Z" class="i pk" transform="translate(95.05445312500001, 48) scale(0.65)"></path><text x="13" y="86" class="tf">name<tspan x="157.74" class="ty">varchar</tspan></text><path d="M814.545 581.818v-23.273H535.273v-93.09h-46.546v93.09H209.455v139.637H256V605.09h232.727v93.09h46.546v-93.09H768v93.09h46.545V581.819zM674.91 465.455H349.091V139.636h325.818v325.819zM325.82 884.364H139.635V698.182h186.182v186.182z m279.272 0H418.909V698.182h186.182v186.182z m279.273 0H698.182V698.182h186.182v186.182zM395.636 418.909h232.728V186.182H395.636v232.727zM186.182 837.82h93.09v-93.092h-93.09v93.091z m279.273 0h93.09v-93.092h-93.09v93.091z m279.272 0h93.091v-93.092h-93.09v93.091z" class="i ix" transform="translate(102.72632812500001, 75) scale(0.014)"></path><text x="13" y="111" class="tf">summary<tspan x="157.74" class="ty">varchar</tspan></text><text x="13" y="136" class="tf">description<tspan x="157.74" class="ty">varchar</tspan></text><text x="13" y="161" class="tf">code<tspan x="157.74" class="ty">varchar</tspan></text><path d="M22,18V22H18V19H15V16H12L9.74,13.74C9.19,13.91 8.61,14 8,14A6,6 0 0,1 2,8A6,6 0 0,1 8,2A6,6 0 0,1 14,8C14,8.61 13.91, 9.19 13.74, 9.74L22, 18M7, 5A2, 2 0 0, 0 5, 7A2, 2 0 0, 0 7, 9A2, 2 0 0, 0 9, 7A2, 2 0 0, 0 7, 5Z" class="i uq" transform="translate(101.72632812500001, 150.5) scale(0.5)"></path><text x="13" y="186" class="tf">active<tspan x="157.74" class="ty">boolean</tspan></text><text x="13" y="211" class="tf">created_at<tspan x="157.74" class="ty">timestamptz</tspan></text><text x="13" y="236" class="tf">updated_at<tspan x="157.74" class="ty">timestamptz</tspan></text></svg><svg width="205.09" height="375" x="836.22" y="360" id="h3861953418" class="t"><rect height="40" width="205.09" class="th"></rect><text x="13" y="25" class="tht">address</text><rect height="335" width="205.09" class="t-bg"></rect><text x="13" y="61" class="tf pk">id<tspan x="192.09" class="ty">SERIAL</tspan></text><path d="M7,14A2,2 0 0,1 5,12A2,2 0 0,1 7,10A2,2 0 0,1 9,12A2,2 0 0,1 7,14M12.65,10C11.83,7.67 9.61,6 7, 6A6, 6 0 0, 0 1, 12A6, 6 0 0, 0 7, 18C9.61, 18 11.83, 16.33 12.65, 14H17V18H21V14H23V10H12.65Z" class="i pk" transform="translate(129.404453125, 48) scale(0.65)"></path><text x="13" y="86" class="tf fk">merchant_id<tspan x="192.09" class="ty">int</tspan></text><text x="13" y="111" class="tf">name<tspan x="192.09" class="ty">varchar</tspan></text><text x="13" y="136" class="tf">organisation<tspan x="192.09" class="ty">varchar</tspan></text><text x="13" y="161" class="tf">street_address_lines<tspan x="192.09" class="ty">varchar</tspan></text><text x="13" y="186" class="tf">dependent_locality<tspan x="192.09" class="ty">varchar</tspan></text><path d="M814.545 581.818v-23.273H535.273v-93.09h-46.546v93.09H209.455v139.637H256V605.09h232.727v93.09h46.546v-93.09H768v93.09h46.545V581.819zM674.91 465.455H349.091V139.636h325.818v325.819zM325.82 884.364H139.635V698.182h186.182v186.182z m279.272 0H418.909V698.182h186.182v186.182z m279.273 0H698.182V698.182h186.182v186.182zM395.636 418.909h232.728V186.182H395.636v232.727zM186.182 837.82h93.09v-93.092h-93.09v93.091z m279.273 0h93.09v-93.092h-93.09v93.091z m279.272 0h93.091v-93.092h-93.09v93.091z" class="i ix" transform="translate(137.076328125, 175) scale(0.014)"></path><text x="13" y="211" class="tf">city_or_locality<tspan x="192.09" class="ty">varchar</tspan></text><path d="M814.545 581.818v-23.273H535.273v-93.09h-46.546v93.09H209.455v139.637H256V605.09h232.727v93.09h46.546v-93.09H768v93.09h46.545V581.819zM674.91 465.455H349.091V139.636h325.818v325.819zM325.82 884.364H139.635V698.182h186.182v186.182z m279.272 0H418.909V698.182h186.182v186.182z m279.273 0H698.182V698.182h186.182v186.182zM395.636 418.909h232.728V186.182H395.636v232.727zM186.182 837.82h93.09v-93.092h-93.09v93.091z m279.273 0h93.09v-93.092h-93.09v93.091z m279.272 0h93.091v-93.092h-93.09v93.091z" class="i ix" transform="translate(137.076328125, 200) scale(0.014)"></path><text x="13" y="236" class="tf">state_or_province<tspan x="192.09" class="ty">varchar</tspan></text><path d="M814.545 581.818v-23.273H535.273v-93.09h-46.546v93.09H209.455v139.637H256V605.09h232.727v93.09h46.546v-93.09H768v93.09h46.545V581.819zM674.91 465.455H349.091V139.636h325.818v325.819zM325.82 884.364H139.635V698.182h186.182v186.182z m279.272 0H418.909V698.182h186.182v186.182z m279.273 0H698.182V698.182h186.182v186.182zM395.636 418.909h232.728V186.182H395.636v232.727zM186.182 837.82h93.09v-93.092h-93.09v93.091z m279.273 0h93.09v-93.092h-93.09v93.091z m279.272 0h93.091v-93.092h-93.09v93.091z" class="i ix" transform="translate(137.076328125, 225) scale(0.014)"></path><text x="13" y="261" class="tf">zip_or_postal_code<tspan x="192.09" class="ty">varchar</tspan></text><path d="M814.545 581.818v-23.273H535.273v-93.09h-46.546v93.09H209.455v139.637H256V605.09h232.727v93.09h46.546v-93.09H768v93.09h46.545V581.819zM674.91 465.455H349.091V139.636h325.818v325.819zM325.82 884.364H139.635V698.182h186.182v186.182z m279.272 0H418.909V698.182h186.182v186.182z m279.273 0H698.182V698.182h186.182v186.182zM395.636 418.909h232.728V186.182H395.636v232.727zM186.182 837.82h93.09v-93.092h-93.09v93.091z m279.273 0h93.09v-93.092h-93.09v93.091z m279.272 0h93.091v-93.092h-93.09v93.091z" class="i ix" transform="translate(137.076328125, 250) scale(0.014)"></path><text x="13" y="286" class="tf">sorting_code<tspan x="192.09" class="ty">varchar</tspan></text><path d="M814.545 581.818v-23.273H535.273v-93.09h-46.546v93.09H209.455v139.637H256V605.09h232.727v93.09h46.546v-93.09H768v93.09h46.545V581.819zM674.91 465.455H349.091V139.636h325.818v325.819zM325.82 884.364H139.635V698.182h186.182v186.182z m279.272 0H418.909V698.182h186.182v186.182z m279.273 0H698.182V698.182h186.182v186.182zM395.636 418.909h232.728V186.182H395.636v232.727zM186.182 837.82h93.09v-93.092h-93.09v93.091z m279.273 0h93.09v-93.092h-93.09v93.091z m279.272 0h93.091v-93.092h-93.09v93.091z" class="i ix" transform="translate(137.076328125, 275) scale(0.014)"></path><text x="13" y="311" class="tf">geo_location<tspan x="192.09" class="ty">point</tspan></text><text x="13" y="336" class="tf">created_at<tspan x="192.09" class="ty">timestamptz</tspan></text><text x="13" y="361" class="tf">updated_at<tspan x="192.09" class="ty">timestamptz</tspan></text></svg><svg width="170.74" height="150" x="521.34" y="606.66" id="h3080915543" class="t"><rect height="40" width="170.74" class="th"></rect><text x="13" y="25" class="tht">link</text><rect height="110" width="170.74" class="t-bg"></rect><text x="13" y="61" class="tf pk">id<tspan x="157.74" class="ty">SERIAL</tspan></text><path d="M7,14A2,2 0 0,1 5,12A2,2 0 0,1 7,10A2,2 0 0,1 9,12A2,2 0 0,1 7,14M12.65,10C11.83,7.67 9.61,6 7, 6A6, 6 0 0, 0 1, 12A6, 6 0 0, 0 7, 18C9.61, 18 11.83, 16.33 12.65, 14H17V18H21V14H23V10H12.65Z" class="i pk" transform="translate(95.05445312500001, 48) scale(0.65)"></path><text x="13" y="86" class="tf">url<tspan x="157.74" class="ty">varchar</tspan></text><text x="13" y="111" class="tf">created_at<tspan x="157.74" class="ty">timestamptz</tspan></text><text x="13" y="136" class="tf">updated_at<tspan x="157.74" class="ty">timestamptz</tspan></text></svg><svg width="167.39" height="175" x="518.11" y="402.11" id="h3190739056" class="t"><rect height="40" width="167.39" class="th"></rect><text x="13" y="25" class="tht">merchant__link</text><rect height="135" width="167.39" class="t-bg"></rect><text x="13" y="61" class="tf fk">merchant_id<tspan x="154.39" class="ty">int</tspan></text><text x="13" y="86" class="tf">link_type<tspan x="154.39" class="ty">link_type</tspan></text><text x="13" y="111" class="tf fk">link_id<tspan x="154.39" class="ty">int</tspan></text><text x="13" y="136" class="tf fk">address_id<tspan x="154.39" class="ty">int</tspan></text><text x="13" y="161" class="tf">created_at<tspan x="154.39" class="ty">timestamptz</tspan></text></svg><svg width="167.39" height="125" x="1129" y="6" id="h2199300421" class="t"><rect height="40" width="167.39" class="th"></rect><text x="13" y="25" class="tht">tag</text><rect height="85" width="167.39" class="t-bg"></rect><text x="13" y="61" class="tf pk">id<tspan x="154.39" class="ty">SERIAL</tspan></text><path d="M7,14A2,2 0 0,1 5,12A2,2 0 0,1 7,10A2,2 0 0,1 9,12A2,2 0 0,1 7,14M12.65,10C11.83,7.67 9.61,6 7, 6A6, 6 0 0, 0 1, 12A6, 6 0 0, 0 7, 18C9.61, 18 11.83, 16.33 12.65, 14H17V18H21V14H23V10H12.65Z" class="i pk" transform="translate(91.70445312499999, 48) scale(0.65)"></path><text x="13" y="86" class="tf">tag<tspan x="154.39" class="ty">varchar</tspan></text><path d="M814.545 581.818v-23.273H535.273v-93.09h-46.546v93.09H209.455v139.637H256V605.09h232.727v93.09h46.546v-93.09H768v93.09h46.545V581.819zM674.91 465.455H349.091V139.636h325.818v325.819zM325.82 884.364H139.635V698.182h186.182v186.182z m279.272 0H418.909V698.182h186.182v186.182z m279.273 0H698.182V698.182h186.182v186.182zM395.636 418.909h232.728V186.182H395.636v232.727zM186.182 837.82h93.09v-93.092h-93.09v93.091z m279.273 0h93.09v-93.092h-93.09v93.091z m279.272 0h93.091v-93.092h-93.09v93.091z" class="i ix" transform="translate(99.37632812499999, 75) scale(0.014)"></path><text x="13" y="111" class="tf">created_at<tspan x="154.39" class="ty">timestamptz</tspan></text></svg><svg width="167.39" height="125" x="877" y="-19" id="h1985191497" class="t"><rect height="40" width="167.39" class="th"></rect><text x="13" y="25" class="tht">merchant__tags</text><rect height="85" width="167.39" class="t-bg"></rect><text x="13" y="61" class="tf fk">merchant_id<tspan x="154.39" class="ty">int</tspan></text><text x="13" y="86" class="tf fk">tag_id<tspan x="154.39" class="ty">int</tspan></text><text x="13" y="111" class="tf">created_at<tspan x="154.39" class="ty">timestamptz</tspan></text></svg><svg width="167.39" height="225" x="1198.56" y="268.11" id="h1048209603" class="t"><rect height="40" width="167.39" class="th"></rect><text x="13" y="25" class="tht">limit</text><rect height="185" width="167.39" class="t-bg"></rect><text x="13" y="61" class="tf pk">id<tspan x="154.39" class="ty">SERIAL</tspan></text><path d="M7,14A2,2 0 0,1 5,12A2,2 0 0,1 7,10A2,2 0 0,1 9,12A2,2 0 0,1 7,14M12.65,10C11.83,7.67 9.61,6 7, 6A6, 6 0 0, 0 1, 12A6, 6 0 0, 0 7, 18C9.61, 18 11.83, 16.33 12.65, 14H17V18H21V14H23V10H12.65Z" class="i pk" transform="translate(91.70445312499999, 48) scale(0.65)"></path><text x="13" y="86" class="tf">limit_type<tspan x="154.39" class="ty">limit_type</tspan></text><text x="13" y="111" class="tf fk">address_id<tspan x="154.39" class="ty">int</tspan></text><text x="13" y="136" class="tf">limit<tspan x="154.39" class="ty">varchar</tspan></text><text x="13" y="161" class="tf">geo_circle<tspan x="154.39" class="ty">circle</tspan></text><text x="13" y="186" class="tf">geo_polygon<tspan x="154.39" class="ty">polygon</tspan></text><text x="13" y="211" class="tf">created_at<tspan x="154.39" class="ty">timestamptz</tspan></text></svg><svg width="167.39" height="175" x="879.33" y="142.89" id="h2208451069" class="t"><rect height="40" width="167.39" class="th"></rect><text x="13" y="25" class="tht">merchant__limit</text><rect height="135" width="167.39" class="t-bg"></rect><text x="13" y="61" class="tf fk">merchant_id<tspan x="154.39" class="ty">int</tspan></text><text x="13" y="86" class="tf">limit_type<tspan x="154.39" class="ty">limit_type</tspan></text><text x="13" y="111" class="tf fk">limit_id<tspan x="154.39" class="ty">int</tspan></text><text x="13" y="136" class="tf fk">address_id<tspan x="154.39" class="ty">int</tspan></text><text x="13" y="161" class="tf">created_at<tspan x="154.39" class="ty">timestamptz</tspan></text></svg></g></g><text class="qdbd-link" x="10" y="20">www.quickdatabasediagrams.com</text></svg>