<svg class="diagram-root" style="background: #f5f6f6" xmlns="http://www.w3.org/2000/svg" xmlns:xlink="http://www.w3.org/1999/xlink"><style>.diagram-root { font-family: "Helvetica Neue", sans-serif; font-size: 12px; } .t { overflow: visible; } .t-bg { y: 40; fill: #fff;   } .th { fill: #005aa0;   } .tht { fill: #fff; font-size: 14px;  } .tf { fill: #323c46; overflow: visible; } .tf.pk { fill: #005aa0; font-weight: bold; } .tf.fk { font-weight: bold; } .ty { fill: #adb1b5; font-weight: normal; text-anchor: end; } .r { fill: transparent; stroke: #c3c3c3; stroke-width: 1; } .l { stroke: 1; } .i { fill: #c2c7ce; stroke: #c2c7ce; } .i.ix { fill: #afb3b6; stroke: #000; } .fa { fill: transparent; overflow: visible; } .fa .bg.hover { fill: #f7f7f7; } .c { cy: 12; r: 4; stroke: #d2d2dc; fill: #d2d2dc; } .hr { fill: transparent; stroke: #323c46; stroke-opacity: 0.035; stroke-width: 13; } .dc { stroke: #fa5a3c; fill: #fa5a3c; } .x { stroke: white; stroke-width: 1; } .hl .th { fill: #1b9bff; } .hl .tht {  } .fhl .bg { fill: #e7f4ff; } .fhls .bg {  } .r.hl { stroke: #1b9bff; } .dim { opacity: 0.25; }</style><g class="drawing-wrapper" transform="translate(-499.1099999999992, 119.99777777777776) scale(1,1)"><g class="rs"><path d="M 776.6644444444446 394.7788888888893 m -1, 0 a 1,1 0 1,0 2,0 a 1,1 0 1,0 -2,0 M 776.6644444444446 394.7788888888893 m -0.5, 0 a 0.5,0.5 0 1,0 1,0 a 0.5,0.5 0 1,0 -1,0  M776.6644444444446 394.7788888888893 L776.6644444444446 394.7788888888893 764.6644444444446 394.7788888888893 M 776.6644444444446 400.7788888888893 m -1, 0 a 1,1 0 1,0 2,0 a 1,1 0 1,0 -2,0 M 776.6644444444446 400.7788888888893 m -0.5, 0 a 0.5,0.5 0 1,0 1,0 a 0.5,0.5 0 1,0 -1,0  M776.6644444444446 400.7788888888893 L776.6644444444446 400.7788888888893 769.6644444444446 394.7788888888893 776.6644444444446 388.7788888888893 M 776.6644444444446 388.7788888888893 m -1, 0 a 1,1 0 1,0 2,0 a 1,1 0 1,0 -2,0 M 776.6644444444446 388.7788888888893 m -0.5, 0 a 0.5,0.5 0 1,0 1,0 a 0.5,0.5 0 1,0 -1,0  M764.6644444444446 394.7788888888893 Q 749.46 394.7788888888893, 734.26 310.33 T 703.85 225.88999999999993 M 691.85 225.88999999999993 m -1, 0 a 1,1 0 1,0 2,0 a 1,1 0 1,0 -2,0 M 691.85 225.88999999999993 m -0.5, 0 a 0.5,0.5 0 1,0 1,0 a 0.5,0.5 0 1,0 -1,0  M691.85 225.88999999999993 L691.85 225.88999999999993 703.85 225.88999999999993 M697.85 231.88999999999993 L697.85 231.88999999999993 697.85 219.88999999999993" id="h249273800" class="r"></path><path d="M 944.05 419.7788888888893 m -1, 0 a 1,1 0 1,0 2,0 a 1,1 0 1,0 -2,0 M 944.05 419.7788888888893 m -0.5, 0 a 0.5,0.5 0 1,0 1,0 a 0.5,0.5 0 1,0 -1,0  M944.05 419.7788888888893 L944.05 419.7788888888893 956.05 419.7788888888893 M 944.05 425.7788888888893 m -1, 0 a 1,1 0 1,0 2,0 a 1,1 0 1,0 -2,0 M 944.05 425.7788888888893 m -0.5, 0 a 0.5,0.5 0 1,0 1,0 a 0.5,0.5 0 1,0 -1,0  M944.05 425.7788888888893 L944.05 425.7788888888893 951.05 419.7788888888893 944.05 413.7788888888893 M 944.05 413.7788888888893 m -1, 0 a 1,1 0 1,0 2,0 a 1,1 0 1,0 -2,0 M 944.05 413.7788888888893 m -0.5, 0 a 0.5,0.5 0 1,0 1,0 a 0.5,0.5 0 1,0 -1,0  M956.05 419.7788888888893 Q 983.34 419.7788888888893, 1010.63 443.39 T 1065.2188888888893 466.99888888888944 M 1077.2188888888893 466.99888888888944 m -1, 0 a 1,1 0 1,0 2,0 a 1,1 0 1,0 -2,0 M 1077.2188888888893 466.99888888888944 m -0.5, 0 a 0.5,0.5 0 1,0 1,0 a 0.5,0.5 0 1,0 -1,0  M1077.2188888888893 466.99888888888944 L1077.2188888888893 466.99888888888944 1065.2188888888893 466.99888888888944 M1071.2188888888893 472.99888888888944 L1071.2188888888893 472.99888888888944 1071.2188888888893 460.99888888888944" id="h2069526170" class="r"></path><path d="M 521.1133333333366 518.1122222222219 m -1, 0 a 1,1 0 1,0 2,0 a 1,1 0 1,0 -2,0 M 521.1133333333366 518.1122222222219 m -0.5, 0 a 0.5,0.5 0 1,0 1,0 a 0.5,0.5 0 1,0 -1,0  M521.1133333333366 518.1122222222219 L521.1133333333366 518.1122222222219 509.11333333333664 518.1122222222219 M 521.1133333333366 524.1122222222219 m -1, 0 a 1,1 0 1,0 2,0 a 1,1 0 1,0 -2,0 M 521.1133333333366 524.1122222222219 m -0.5, 0 a 0.5,0.5 0 1,0 1,0 a 0.5,0.5 0 1,0 -1,0  M521.1133333333366 524.1122222222219 L521.1133333333366 524.1122222222219 514.1133333333366 518.1122222222219 521.1133333333366 512.1122222222219 M 521.1133333333366 512.1122222222219 m -1, 0 a 1,1 0 1,0 2,0 a 1,1 0 1,0 -2,0 M 521.1133333333366 512.1122222222219 m -0.5, 0 a 0.5,0.5 0 1,0 1,0 a 0.5,0.5 0 1,0 -1,0  M509.11333333333664 518.1122222222219 C 459.10799999999676 518.1122222222219, 459.1099999999992 225.88999999999993, 509.1099999999992 225.88999999999993 M 521.1099999999992 225.88999999999993 m -1, 0 a 1,1 0 1,0 2,0 a 1,1 0 1,0 -2,0 M 521.1099999999992 225.88999999999993 m -0.5, 0 a 0.5,0.5 0 1,0 1,0 a 0.5,0.5 0 1,0 -1,0  M521.1099999999992 225.88999999999993 L521.1099999999992 225.88999999999993 509.1099999999992 225.88999999999993 M515.1099999999992 231.88999999999993 L515.1099999999992 231.88999999999993 515.1099999999992 219.88999999999993" id="h1735354479" class="r"></path><path d="M 521.1133333333366 568.1122222222219 m -1, 0 a 1,1 0 1,0 2,0 a 1,1 0 1,0 -2,0 M 521.1133333333366 568.1122222222219 m -0.5, 0 a 0.5,0.5 0 1,0 1,0 a 0.5,0.5 0 1,0 -1,0  M521.1133333333366 568.1122222222219 L521.1133333333366 568.1122222222219 509.11333333333664 568.1122222222219 M 521.1133333333366 574.1122222222219 m -1, 0 a 1,1 0 1,0 2,0 a 1,1 0 1,0 -2,0 M 521.1133333333366 574.1122222222219 m -0.5, 0 a 0.5,0.5 0 1,0 1,0 a 0.5,0.5 0 1,0 -1,0  M521.1133333333366 574.1122222222219 L521.1133333333366 574.1122222222219 514.1133333333366 568.1122222222219 521.1133333333366 562.1122222222219 M 521.1133333333366 562.1122222222219 m -1, 0 a 1,1 0 1,0 2,0 a 1,1 0 1,0 -2,0 M 521.1133333333366 562.1122222222219 m -0.5, 0 a 0.5,0.5 0 1,0 1,0 a 0.5,0.5 0 1,0 -1,0  M509.11333333333664 568.1122222222219 C 459.11333333333664 568.1122222222219, 346.7786666666723 673.663333333332, 696.3377777777772 673.663333333332 M 708.3377777777772 673.663333333332 m -1, 0 a 1,1 0 1,0 2,0 a 1,1 0 1,0 -2,0 M 708.3377777777772 673.663333333332 m -0.5, 0 a 0.5,0.5 0 1,0 1,0 a 0.5,0.5 0 1,0 -1,0  M708.3377777777772 673.663333333332 L708.3377777777772 673.663333333332 696.3377777777772 673.663333333332 M702.3377777777772 679.663333333332 L702.3377777777772 679.663333333332 702.3377777777772 667.663333333332" id="h1954372252" class="r"></path><path d="M 688.5 593.1122222222219 m -1, 0 a 1,1 0 1,0 2,0 a 1,1 0 1,0 -2,0 M 688.5 593.1122222222219 m -0.5, 0 a 0.5,0.5 0 1,0 1,0 a 0.5,0.5 0 1,0 -1,0  M688.5 593.1122222222219 L688.5 593.1122222222219 695.5 593.1122222222219 M 688.5 599.1122222222219 m -1, 0 a 1,1 0 1,0 2,0 a 1,1 0 1,0 -2,0 M 688.5 599.1122222222219 m -0.5, 0 a 0.5,0.5 0 1,0 1,0 a 0.5,0.5 0 1,0 -1,0  M688.5 599.1122222222219 L688.5 599.1122222222219 695.5 593.1122222222219 688.5 587.1122222222219 M 688.5 587.1122222222219 m -1, 0 a 1,1 0 1,0 2,0 a 1,1 0 1,0 -2,0 M 688.5 587.1122222222219 m -0.5, 0 a 0.5,0.5 0 1,0 1,0 a 0.5,0.5 0 1,0 -1,0  M 698 593.1122222222219 m -2.5, 0 a 2.5,2.5 0 1,0 5,0 a 2.5,2.5 0 1,0 -5,0 M700.5 593.1122222222219 Q 791.68 593.1122222222219, 882.86 530.06 T 1065.2188888888893 466.99888888888944 M 1077.2188888888893 466.99888888888944 m -1, 0 a 1,1 0 1,0 2,0 a 1,1 0 1,0 -2,0 M 1077.2188888888893 466.99888888888944 m -0.5, 0 a 0.5,0.5 0 1,0 1,0 a 0.5,0.5 0 1,0 -1,0  M1077.2188888888893 466.99888888888944 L1077.2188888888893 466.99888888888944 1065.2188888888893 466.99888888888944 M1071.2188888888893 472.99888888888944 L1071.2188888888893 472.99888888888944 1071.2188888888893 460.99888888888944" id="h1229668854" class="r"></path><path d="M 805.5599999999998 -32.997777777777756 m -1, 0 a 1,1 0 1,0 2,0 a 1,1 0 1,0 -2,0 M 805.5599999999998 -32.997777777777756 m -0.5, 0 a 0.5,0.5 0 1,0 1,0 a 0.5,0.5 0 1,0 -1,0  M805.5599999999998 -32.997777777777756 L805.5599999999998 -32.997777777777756 793.5599999999998 -32.997777777777756 M 805.5599999999998 -26.997777777777756 m -1, 0 a 1,1 0 1,0 2,0 a 1,1 0 1,0 -2,0 M 805.5599999999998 -26.997777777777756 m -0.5, 0 a 0.5,0.5 0 1,0 1,0 a 0.5,0.5 0 1,0 -1,0  M805.5599999999998 -26.997777777777756 L805.5599999999998 -26.997777777777756 798.5599999999998 -32.997777777777756 805.5599999999998 -38.997777777777756 M 805.5599999999998 -38.997777777777756 m -1, 0 a 1,1 0 1,0 2,0 a 1,1 0 1,0 -2,0 M 805.5599999999998 -38.997777777777756 m -0.5, 0 a 0.5,0.5 0 1,0 1,0 a 0.5,0.5 0 1,0 -1,0  M793.5599999999998 -32.997777777777756 Q 771.14 -32.997777777777756, 748.71 96.45 T 703.85 225.88999999999993 M 691.85 225.88999999999993 m -1, 0 a 1,1 0 1,0 2,0 a 1,1 0 1,0 -2,0 M 691.85 225.88999999999993 m -0.5, 0 a 0.5,0.5 0 1,0 1,0 a 0.5,0.5 0 1,0 -1,0  M691.85 225.88999999999993 L691.85 225.88999999999993 703.85 225.88999999999993 M697.85 231.88999999999993 L697.85 231.88999999999993 697.85 219.88999999999993" id="h2311166637" class="r"></path><path d="M 972.95 -7.997777777777756 m -1, 0 a 1,1 0 1,0 2,0 a 1,1 0 1,0 -2,0 M 972.95 -7.997777777777756 m -0.5, 0 a 0.5,0.5 0 1,0 1,0 a 0.5,0.5 0 1,0 -1,0  M972.95 -7.997777777777756 L972.95 -7.997777777777756 984.95 -7.997777777777756 M 972.95 -1.9977777777777561 m -1, 0 a 1,1 0 1,0 2,0 a 1,1 0 1,0 -2,0 M 972.95 -1.9977777777777561 m -0.5, 0 a 0.5,0.5 0 1,0 1,0 a 0.5,0.5 0 1,0 -1,0  M972.95 -1.9977777777777561 L972.95 -1.9977777777777561 979.95 -7.997777777777756 972.95 -13.997777777777756 M 972.95 -13.997777777777756 m -1, 0 a 1,1 0 1,0 2,0 a 1,1 0 1,0 -2,0 M 972.95 -13.997777777777756 m -0.5, 0 a 0.5,0.5 0 1,0 1,0 a 0.5,0.5 0 1,0 -1,0  M984.95 -7.997777777777756 Q 1001.13 -7.997777777777756, 1017.31 -19.39 T 1049.6699999999998 -30.779999999999816 M 1061.6699999999998 -30.779999999999816 m -1, 0 a 1,1 0 1,0 2,0 a 1,1 0 1,0 -2,0 M 1061.6699999999998 -30.779999999999816 m -0.5, 0 a 0.5,0.5 0 1,0 1,0 a 0.5,0.5 0 1,0 -1,0  M1061.6699999999998 -30.779999999999816 L1061.6699999999998 -30.779999999999816 1049.6699999999998 -30.779999999999816 M1055.6699999999998 -24.779999999999816 L1055.6699999999998 -24.779999999999816 1055.6699999999998 -36.779999999999816" id="h337765731" class="r"></path><path d="M 818.3333333333312 165.888888888889 m -1, 0 a 1,1 0 1,0 2,0 a 1,1 0 1,0 -2,0 M 818.3333333333312 165.888888888889 m -0.5, 0 a 0.5,0.5 0 1,0 1,0 a 0.5,0.5 0 1,0 -1,0  M818.3333333333312 165.888888888889 L818.3333333333312 165.888888888889 806.3333333333312 165.888888888889 M 818.3333333333312 171.888888888889 m -1, 0 a 1,1 0 1,0 2,0 a 1,1 0 1,0 -2,0 M 818.3333333333312 171.888888888889 m -0.5, 0 a 0.5,0.5 0 1,0 1,0 a 0.5,0.5 0 1,0 -1,0  M818.3333333333312 171.888888888889 L818.3333333333312 171.888888888889 811.3333333333312 165.888888888889 818.3333333333312 159.888888888889 M 818.3333333333312 159.888888888889 m -1, 0 a 1,1 0 1,0 2,0 a 1,1 0 1,0 -2,0 M 818.3333333333312 159.888888888889 m -0.5, 0 a 0.5,0.5 0 1,0 1,0 a 0.5,0.5 0 1,0 -1,0  M806.3333333333312 165.888888888889 Q 780.71 165.888888888889, 755.09 195.89 T 703.85 225.88999999999993 M 691.85 225.88999999999993 m -1, 0 a 1,1 0 1,0 2,0 a 1,1 0 1,0 -2,0 M 691.85 225.88999999999993 m -0.5, 0 a 0.5,0.5 0 1,0 1,0 a 0.5,0.5 0 1,0 -1,0  M691.85 225.88999999999993 L691.85 225.88999999999993 703.85 225.88999999999993 M697.85 231.88999999999993 L697.85 231.88999999999993 697.85 219.88999999999993" id="h1351716589" class="r"></path><path d="M 985.72 215.888888888889 m -1, 0 a 1,1 0 1,0 2,0 a 1,1 0 1,0 -2,0 M 985.72 215.888888888889 m -0.5, 0 a 0.5,0.5 0 1,0 1,0 a 0.5,0.5 0 1,0 -1,0  M985.72 215.888888888889 L985.72 215.888888888889 997.72 215.888888888889 M 985.72 221.888888888889 m -1, 0 a 1,1 0 1,0 2,0 a 1,1 0 1,0 -2,0 M 985.72 221.888888888889 m -0.5, 0 a 0.5,0.5 0 1,0 1,0 a 0.5,0.5 0 1,0 -1,0  M985.72 221.888888888889 L985.72 221.888888888889 992.72 215.888888888889 985.72 209.888888888889 M 985.72 209.888888888889 m -1, 0 a 1,1 0 1,0 2,0 a 1,1 0 1,0 -2,0 M 985.72 209.888888888889 m -0.5, 0 a 0.5,0.5 0 1,0 1,0 a 0.5,0.5 0 1,0 -1,0  M997.72 215.888888888889 Q 1014.18 215.888888888889, 1030.64 192 T 1063.555555555556 168.1111111111142 M 1075.555555555556 168.1111111111142 m -1, 0 a 1,1 0 1,0 2,0 a 1,1 0 1,0 -2,0 M 1075.555555555556 168.1111111111142 m -0.5, 0 a 0.5,0.5 0 1,0 1,0 a 0.5,0.5 0 1,0 -1,0  M1075.555555555556 168.1111111111142 L1075.555555555556 168.1111111111142 1063.555555555556 168.1111111111142 M1069.555555555556 174.1111111111142 L1069.555555555556 174.1111111111142 1069.555555555556 162.1111111111142" id="h3783689878" class="r"></path><path d="M 985.72 240.888888888889 m -1, 0 a 1,1 0 1,0 2,0 a 1,1 0 1,0 -2,0 M 985.72 240.888888888889 m -0.5, 0 a 0.5,0.5 0 1,0 1,0 a 0.5,0.5 0 1,0 -1,0  M985.72 240.888888888889 L985.72 240.888888888889 992.72 240.888888888889 M 985.72 246.888888888889 m -1, 0 a 1,1 0 1,0 2,0 a 1,1 0 1,0 -2,0 M 985.72 246.888888888889 m -0.5, 0 a 0.5,0.5 0 1,0 1,0 a 0.5,0.5 0 1,0 -1,0  M985.72 246.888888888889 L985.72 246.888888888889 992.72 240.888888888889 985.72 234.888888888889 M 985.72 234.888888888889 m -1, 0 a 1,1 0 1,0 2,0 a 1,1 0 1,0 -2,0 M 985.72 234.888888888889 m -0.5, 0 a 0.5,0.5 0 1,0 1,0 a 0.5,0.5 0 1,0 -1,0  M 995.22 240.888888888889 m -2.5, 0 a 2.5,2.5 0 1,0 5,0 a 2.5,2.5 0 1,0 -5,0 M997.72 240.888888888889 Q 1014.6 240.888888888889, 1031.47 353.94 T 1065.2188888888893 466.99888888888944 M 1077.2188888888893 466.99888888888944 m -1, 0 a 1,1 0 1,0 2,0 a 1,1 0 1,0 -2,0 M 1077.2188888888893 466.99888888888944 m -0.5, 0 a 0.5,0.5 0 1,0 1,0 a 0.5,0.5 0 1,0 -1,0  M1077.2188888888893 466.99888888888944 L1077.2188888888893 466.99888888888944 1065.2188888888893 466.99888888888944 M1071.2188888888893 472.99888888888944 L1071.2188888888893 472.99888888888944 1071.2188888888893 460.99888888888944" id="h896753391" class="r"></path></g><g class="hrs"></g><g class="ts"><svg width="167.39" height="175" x="521.1133333333366" y="461.11222222222193" id="h3190739056" class="t"><rect height="40" width="167.39" class="th"></rect><text x="13" y="25" class="tht">merchant__link</text><rect height="135" width="167.39" class="t-bg"></rect><text x="13" y="61" class="tf fk">merchant_id<tspan x="154.39" class="ty">int</tspan></text><text x="13" y="86" class="tf">link_type<tspan x="154.39" class="ty">link_type</tspan></text><text x="13" y="111" class="tf fk">link_id<tspan x="154.39" class="ty">int</tspan></text><text x="13" y="136" class="tf fk">address_id<tspan x="154.39" class="ty">int</tspan></text><text x="13" y="161" class="tf">created_at<tspan x="154.39" class="ty">timestamptz</tspan></text></svg><svg width="170.74" height="250" x="521.1099999999992" y="168.88999999999993" id="h1481749269" class="t"><rect height="40" width="170.74" class="th"></rect><text x="13" y="25" class="tht">merchant</text><rect height="210" width="170.74" class="t-bg"></rect><text x="13" y="61" class="tf pk">id<tspan x="157.74" class="ty">SERIAL</tspan></text><path d="M7,14A2,2 0 0,1 5,12A2,2 0 0,1 7,10A2,2 0 0,1 9,12A2,2 0 0,1 7,14M12.65,10C11.83,7.67 9.61,6 7, 6A6, 6 0 0, 0 1, 12A6, 6 0 0, 0 7, 18C9.61, 18 11.83, 16.33 12.65, 14H17V18H21V14H23V10H12.65Z" class="i pk" transform="translate(95.05445312500001, 48) scale(0.65)"></path><text x="13" y="86" class="tf">name<tspan x="157.74" class="ty">varchar</tspan></text><path d="M814.545 581.818v-23.273H535.273v-93.09h-46.546v93.09H209.455v139.637H256V605.09h232.727v93.09h46.546v-93.09H768v93.09h46.545V581.819zM674.91 465.455H349.091V139.636h325.818v325.819zM325.82 884.364H139.635V698.182h186.182v186.182z m279.272 0H418.909V698.182h186.182v186.182z m279.273 0H698.182V698.182h186.182v186.182zM395.636 418.909h232.728V186.182H395.636v232.727zM186.182 837.82h93.09v-93.092h-93.09v93.091z m279.273 0h93.09v-93.092h-93.09v93.091z m279.272 0h93.091v-93.092h-93.09v93.091z" class="i ix" transform="translate(102.72632812500001, 75) scale(0.014)"></path><text x="13" y="111" class="tf">summary<tspan x="157.74" class="ty">varchar</tspan></text><text x="13" y="136" class="tf">description<tspan x="157.74" class="ty">varchar</tspan></text><text x="13" y="161" class="tf">code<tspan x="157.74" class="ty">varchar</tspan></text><path d="M22,18V22H18V19H15V16H12L9.74,13.74C9.19,13.91 8.61,14 8,14A6,6 0 0,1 2,8A6,6 0 0,1 8,2A6,6 0 0,1 14,8C14,8.61 13.91, 9.19 13.74, 9.74L22, 18M7, 5A2, 2 0 0, 0 5, 7A2, 2 0 0, 0 7, 9A2, 2 0 0, 0 9, 7A2, 2 0 0, 0 7, 5Z" class="i uq" transform="translate(101.72632812500001, 150.5) scale(0.5)"></path><text x="13" y="186" class="tf">active<tspan x="157.74" class="ty">boolean</tspan></text><text x="13" y="211" class="tf">created_at<tspan x="157.74" class="ty">timestamptz</tspan></text><text x="13" y="236" class="tf">updated_at<tspan x="157.74" class="ty">timestamptz</tspan></text></svg><svg width="170.74" height="150" x="708.3377777777772" y="616.663333333332" id="h3080915543" class="t"><rect height="40" width="170.74" class="th"></rect><text x="13" y="25" class="tht">link</text><rect height="110" width="170.74" class="t-bg"></rect><text x="13" y="61" class="tf pk">id<tspan x="157.74" class="ty">SERIAL</tspan></text><path d="M7,14A2,2 0 0,1 5,12A2,2 0 0,1 7,10A2,2 0 0,1 9,12A2,2 0 0,1 7,14M12.65,10C11.83,7.67 9.61,6 7, 6A6, 6 0 0, 0 1, 12A6, 6 0 0, 0 7, 18C9.61, 18 11.83, 16.33 12.65, 14H17V18H21V14H23V10H12.65Z" class="i pk" transform="translate(95.05445312500001, 48) scale(0.65)"></path><text x="13" y="86" class="tf">url<tspan x="157.74" class="ty">varchar</tspan></text><text x="13" y="111" class="tf">created_at<tspan x="157.74" class="ty">timestamptz</tspan></text><text x="13" y="136" class="tf">updated_at<tspan x="157.74" class="ty">timestamptz</tspan></text></svg><svg width="167.39" height="125" x="776.6644444444446" y="337.7788888888893" id="h124845113" class="t"><rect height="40" width="167.39" class="th"></rect><text x="13" y="25" class="tht">merchant__address</text><rect height="85" width="167.39" class="t-bg"></rect><text x="13" y="61" class="tf fk">merchant_id<tspan x="154.39" class="ty">int</tspan></text><text x="13" y="86" class="tf fk">address_id<tspan x="154.39" class="ty">int</tspan></text><text x="13" y="111" class="tf">created_at<tspan x="154.39" class="ty">timestamptz</tspan></text></svg><svg width="167.39" height="125" x="805.5599999999998" y="-89.99777777777776" id="h2392536756" class="t"><rect height="40" width="167.39" class="th"></rect><text x="13" y="25" class="tht">merchant__product</text><rect height="85" width="167.39" class="t-bg"></rect><text x="13" y="61" class="tf fk">merchant_id<tspan x="154.39" class="ty">int</tspan></text><text x="13" y="86" class="tf fk">product_id<tspan x="154.39" class="ty">int</tspan></text><text x="13" y="111" class="tf">created_at<tspan x="154.39" class="ty">timestamptz</tspan></text></svg><svg width="167.39" height="125" x="1061.6699999999998" y="-87.77999999999982" id="h802953414" class="t"><rect height="40" width="167.39" class="th"></rect><text x="13" y="25" class="tht">product</text><rect height="85" width="167.39" class="t-bg"></rect><text x="13" y="61" class="tf pk">id<tspan x="154.39" class="ty">SERIAL</tspan></text><path d="M7,14A2,2 0 0,1 5,12A2,2 0 0,1 7,10A2,2 0 0,1 9,12A2,2 0 0,1 7,14M12.65,10C11.83,7.67 9.61,6 7, 6A6, 6 0 0, 0 1, 12A6, 6 0 0, 0 7, 18C9.61, 18 11.83, 16.33 12.65, 14H17V18H21V14H23V10H12.65Z" class="i pk" transform="translate(91.70445312499999, 48) scale(0.65)"></path><text x="13" y="86" class="tf">product<tspan x="154.39" class="ty">varchar</tspan></text><path d="M814.545 581.818v-23.273H535.273v-93.09h-46.546v93.09H209.455v139.637H256V605.09h232.727v93.09h46.546v-93.09H768v93.09h46.545V581.819zM674.91 465.455H349.091V139.636h325.818v325.819zM325.82 884.364H139.635V698.182h186.182v186.182z m279.272 0H418.909V698.182h186.182v186.182z m279.273 0H698.182V698.182h186.182v186.182zM395.636 418.909h232.728V186.182H395.636v232.727zM186.182 837.82h93.09v-93.092h-93.09v93.091z m279.273 0h93.09v-93.092h-93.09v93.091z m279.272 0h93.091v-93.092h-93.09v93.091z" class="i ix" transform="translate(99.37632812499999, 75) scale(0.014)"></path><text x="13" y="111" class="tf">created_at<tspan x="154.39" class="ty">timestamptz</tspan></text></svg><svg width="167.39" height="200" x="1075.555555555556" y="111.11111111111423" id="h1048209603" class="t"><rect height="40" width="167.39" class="th"></rect><text x="13" y="25" class="tht">limit</text><rect height="160" width="167.39" class="t-bg"></rect><text x="13" y="61" class="tf pk">id<tspan x="154.39" class="ty">SERIAL</tspan></text><path d="M7,14A2,2 0 0,1 5,12A2,2 0 0,1 7,10A2,2 0 0,1 9,12A2,2 0 0,1 7,14M12.65,10C11.83,7.67 9.61,6 7, 6A6, 6 0 0, 0 1, 12A6, 6 0 0, 0 7, 18C9.61, 18 11.83, 16.33 12.65, 14H17V18H21V14H23V10H12.65Z" class="i pk" transform="translate(91.70445312499999, 48) scale(0.65)"></path><text x="13" y="86" class="tf">limit_type<tspan x="154.39" class="ty">limit_type</tspan></text><text x="13" y="111" class="tf">limit<tspan x="154.39" class="ty">varchar</tspan></text><text x="13" y="136" class="tf">geo_circle<tspan x="154.39" class="ty">circle</tspan></text><text x="13" y="161" class="tf">geo_polygon<tspan x="154.39" class="ty">polygon</tspan></text><text x="13" y="186" class="tf">created_at<tspan x="154.39" class="ty">timestamptz</tspan></text></svg><svg width="167.39" height="175" x="818.3333333333312" y="108.888888888889" id="h2208451069" class="t"><rect height="40" width="167.39" class="th"></rect><text x="13" y="25" class="tht">merchant__limit</text><rect height="135" width="167.39" class="t-bg"></rect><text x="13" y="61" class="tf fk">merchant_id<tspan x="154.39" class="ty">int</tspan></text><text x="13" y="86" class="tf">limit_type<tspan x="154.39" class="ty">limit_type</tspan></text><text x="13" y="111" class="tf fk">limit_id<tspan x="154.39" class="ty">int</tspan></text><text x="13" y="136" class="tf fk">address_id<tspan x="154.39" class="ty">int</tspan></text><text x="13" y="161" class="tf">created_at<tspan x="154.39" class="ty">timestamptz</tspan></text></svg><svg width="205.09" height="350" x="1077.2188888888893" y="409.99888888888944" id="h3861953418" class="t"><rect height="40" width="205.09" class="th"></rect><text x="13" y="25" class="tht">address</text><rect height="310" width="205.09" class="t-bg"></rect><text x="13" y="61" class="tf pk">id<tspan x="192.09" class="ty">SERIAL</tspan></text><path d="M7,14A2,2 0 0,1 5,12A2,2 0 0,1 7,10A2,2 0 0,1 9,12A2,2 0 0,1 7,14M12.65,10C11.83,7.67 9.61,6 7, 6A6, 6 0 0, 0 1, 12A6, 6 0 0, 0 7, 18C9.61, 18 11.83, 16.33 12.65, 14H17V18H21V14H23V10H12.65Z" class="i pk" transform="translate(129.404453125, 48) scale(0.65)"></path><text x="13" y="86" class="tf">name<tspan x="192.09" class="ty">varchar</tspan></text><text x="13" y="111" class="tf">organisation<tspan x="192.09" class="ty">varchar</tspan></text><text x="13" y="136" class="tf">street_address_lines<tspan x="192.09" class="ty">varchar</tspan></text><text x="13" y="161" class="tf">dependent_locality<tspan x="192.09" class="ty">varchar</tspan></text><path d="M814.545 581.818v-23.273H535.273v-93.09h-46.546v93.09H209.455v139.637H256V605.09h232.727v93.09h46.546v-93.09H768v93.09h46.545V581.819zM674.91 465.455H349.091V139.636h325.818v325.819zM325.82 884.364H139.635V698.182h186.182v186.182z m279.272 0H418.909V698.182h186.182v186.182z m279.273 0H698.182V698.182h186.182v186.182zM395.636 418.909h232.728V186.182H395.636v232.727zM186.182 837.82h93.09v-93.092h-93.09v93.091z m279.273 0h93.09v-93.092h-93.09v93.091z m279.272 0h93.091v-93.092h-93.09v93.091z" class="i ix" transform="translate(137.076328125, 150) scale(0.014)"></path><text x="13" y="186" class="tf">city_or_locality<tspan x="192.09" class="ty">varchar</tspan></text><path d="M814.545 581.818v-23.273H535.273v-93.09h-46.546v93.09H209.455v139.637H256V605.09h232.727v93.09h46.546v-93.09H768v93.09h46.545V581.819zM674.91 465.455H349.091V139.636h325.818v325.819zM325.82 884.364H139.635V698.182h186.182v186.182z m279.272 0H418.909V698.182h186.182v186.182z m279.273 0H698.182V698.182h186.182v186.182zM395.636 418.909h232.728V186.182H395.636v232.727zM186.182 837.82h93.09v-93.092h-93.09v93.091z m279.273 0h93.09v-93.092h-93.09v93.091z m279.272 0h93.091v-93.092h-93.09v93.091z" class="i ix" transform="translate(137.076328125, 175) scale(0.014)"></path><text x="13" y="211" class="tf">state_or_province<tspan x="192.09" class="ty">varchar</tspan></text><path d="M814.545 581.818v-23.273H535.273v-93.09h-46.546v93.09H209.455v139.637H256V605.09h232.727v93.09h46.546v-93.09H768v93.09h46.545V581.819zM674.91 465.455H349.091V139.636h325.818v325.819zM325.82 884.364H139.635V698.182h186.182v186.182z m279.272 0H418.909V698.182h186.182v186.182z m279.273 0H698.182V698.182h186.182v186.182zM395.636 418.909h232.728V186.182H395.636v232.727zM186.182 837.82h93.09v-93.092h-93.09v93.091z m279.273 0h93.09v-93.092h-93.09v93.091z m279.272 0h93.091v-93.092h-93.09v93.091z" class="i ix" transform="translate(137.076328125, 200) scale(0.014)"></path><text x="13" y="236" class="tf">zip_or_postal_code<tspan x="192.09" class="ty">varchar</tspan></text><path d="M814.545 581.818v-23.273H535.273v-93.09h-46.546v93.09H209.455v139.637H256V605.09h232.727v93.09h46.546v-93.09H768v93.09h46.545V581.819zM674.91 465.455H349.091V139.636h325.818v325.819zM325.82 884.364H139.635V698.182h186.182v186.182z m279.272 0H418.909V698.182h186.182v186.182z m279.273 0H698.182V698.182h186.182v186.182zM395.636 418.909h232.728V186.182H395.636v232.727zM186.182 837.82h93.09v-93.092h-93.09v93.091z m279.273 0h93.09v-93.092h-93.09v93.091z m279.272 0h93.091v-93.092h-93.09v93.091z" class="i ix" transform="translate(137.076328125, 225) scale(0.014)"></path><text x="13" y="261" class="tf">sorting_code<tspan x="192.09" class="ty">varchar</tspan></text><path d="M814.545 581.818v-23.273H535.273v-93.09h-46.546v93.09H209.455v139.637H256V605.09h232.727v93.09h46.546v-93.09H768v93.09h46.545V581.819zM674.91 465.455H349.091V139.636h325.818v325.819zM325.82 884.364H139.635V698.182h186.182v186.182z m279.272 0H418.909V698.182h186.182v186.182z m279.273 0H698.182V698.182h186.182v186.182zM395.636 418.909h232.728V186.182H395.636v232.727zM186.182 837.82h93.09v-93.092h-93.09v93.091z m279.273 0h93.09v-93.092h-93.09v93.091z m279.272 0h93.091v-93.092h-93.09v93.091z" class="i ix" transform="translate(137.076328125, 250) scale(0.014)"></path><text x="13" y="286" class="tf">geo_location<tspan x="192.09" class="ty">point</tspan></text><text x="13" y="311" class="tf">created_at<tspan x="192.09" class="ty">timestamptz</tspan></text><text x="13" y="336" class="tf">updated_at<tspan x="192.09" class="ty">timestamptz</tspan></text></svg></g></g><text class="qdbd-link" x="10" y="20">www.quickdatabasediagrams.com</text></svg>